:SAMPLES-PER-SECOND 30
:FULLY-SPECIFIED
:DEGREES
1110
root  -36.356 39.1769 3.27333 -1.80612 -84.2939 -5.26131
RightUpLeg  15.7682 -8.6783 -0.715981
RightLeg  11.0788 1.88869 1.02129
RightFoot  -18.7689 -0.244398 -1.8333
RightToes  3.49245e-010 0 -3.6325e-017
Spine  6.16227 -1.02075 10.2611
Spine1  10.6728 0.546806 -4.1914
HEad  -2.81395 0.998578 -4.41283
LeftShoulder1  -0.000660483 3.50497 -29.6698
LeftArm  -5.57935 9.06066 -41.0658
LeftForeArm  22.6288 -36.6479 -6.97054
LeftHand  -0.0672673 4.37575 5.5577
RightShoulder  -0.356909 -4.62615 24.7545
RightArm  5.61647 12.3831 42.2335
RightForeArm  3.47425 29.3447 6.18961
RightHand  -0.54326 4.24134 -6.81007
LeftUpLeg  -14.0441 4.74127 2.18932
LeftLeg  -3.23993 7.83254 -1.86237
LeftFoot  3.60382 0.98542 -7.65215
LeftToes  -2.21735e-009 9.83027e-011 -4.04511e-011
1111
root  -37.6308 38.8603 3.46339 -0.425247 -83.969 -6.96863
RightUpLeg  18.3117 -8.9235 -1.075
RightLeg  11.3549 2.15622 1.0292
RightFoot  -20.8176 -0.205624 -0.769043
RightToes  3.49245e-010 0 -3.6325e-017
Spine  5.84432 -1.05904 10.1941
Spine1  11.1001 0.71444 -4.9487
HEad  -2.98569 -0.0484803 -3.17471
LeftShoulder1  0.0628432 3.32618 -29.222
LeftArm  -5.57161 8.5765 -40.899
LeftForeArm  22.3451 -36.0697 -6.82968
LeftHand  -0.0632113 4.45606 5.4527
RightShoulder  -0.400259 -4.75106 25.1284
RightArm  4.26132 12.6899 42.4048
RightForeArm  2.40127 30.8952 6.63537
RightHand  -0.6235 4.4546 -7.62992
LeftUpLeg  -14.6337 4.40325 1.42085
LeftLeg  -2.59917 9.40569 -2.06855
LeftFoot  4.28635 0.85966 -6.58544
LeftToes  -2.21735e-009 9.83027e-011 -4.04511e-011
1112
root  -38.9019 38.5951 3.64205 -3.61473 -83.5822 -3.76115
RightUpLeg  20.3257 -9.25481 -1.96116
RightLeg  11.9676 2.48039 1.00031
RightFoot  -22.3029 -0.113922 0.378534
RightToes  3.49245e-010 0 -3.6325e-017
Spine  5.43143 -0.80429 8.60322
Spine1  11.7261 0.786788 -4.44057
HEad  -3.24059 -1.27203 -2.56329
LeftShoulder1  0.0368383 3.40127 -29.7018
LeftArm  -4.9975 7.28245 -40.2906
LeftForeArm  21.2427 -35.1773 -6.65326
LeftHand  -0.0761533 4.21777 5.80831
RightShoulder  -0.347254 -4.59875 24.6728
RightArm  2.52169 12.1927 42.8287
RightForeArm  2.1254 32.548 7.07714
RightHand  -0.586831 4.73637 -7.00835
LeftUpLeg  -16.7982 3.7548 -0.133565
LeftLeg  3.06814 6.74785 -1.35894
LeftFoot  8.68816 -0.197268 0.691847
LeftToes  -2.21735e-009 9.83027e-011 -4.04511e-011
1113
root  -40.2339 38.3038 3.88926 -11.5325 -83.6286 3.67963
RightUpLeg  22.19 -9.57469 -3.85467
RightLeg  14.3328 3.7417 1.07995
RightFoot  -23.889 0.114577 2.48746
RightToes  3.49245e-010 0 -3.6325e-017
Spine  5.61251 -0.594174 7.46677
Spine1  12.2566 1.2598 -5.38469
HEad  -3.67332 -1.93391 -1.60983
LeftShoulder1  0.0193271 3.44937 -29.3117
LeftArm  -4.8507 6.38515 -40.1722
LeftForeArm  20.542 -35.0409 -6.65939
LeftHand  -0.0628536 4.5351 5.94749
RightShoulder  -0.375738 -4.66969 25.224
RightArm  2.12711 12.5223 42.8817
RightForeArm  1.5018 33.3166 7.31805
RightHand  -0.572061 4.62241 -6.9125
LeftUpLeg  -18.4039 4.02024 -2.24415
LeftLeg  9.65956 2.89792 -0.177534
LeftFoot  13.0214 -1.19911 5.31586
LeftToes  -2.21735e-009 9.83027e-011 -4.04511e-011
1114
root  -41.5288 38.0677 4.1114 -24.781 -83.3122 15.9667
RightUpLeg  23.1522 -8.60991 -5.84277
RightLeg  19.2077 3.86235 1.18357
RightFoot  -24.5987 0.564067 6.26193
RightToes  3.49245e-010 0 -3.6325e-017
Spine  7.10222 -0.190111 5.64201
Spine1  12.0002 1.82951 -6.00521
HEad  -3.71708 -3.32121 -1.03431
LeftShoulder1  0.075478 3.29203 -29.5089
LeftArm  -3.69913 4.37911 -39.4758
LeftForeArm  19.3615 -34.1312 -6.48956
LeftHand  -0.0770193 4.25571 6.07121
RightShoulder  -0.403251 -4.75128 25.3575
RightArm  1.31708 12.5884 43.309
RightForeArm  0.729443 33.2562 7.34529
RightHand  -0.56862 4.69034 -6.82986
LeftUpLeg  -19.5183 6.34516 -4.62376
LeftLeg  17.8636 1.01167 0.734917
LeftFoot  9.65319 -1.42925 7.36131
LeftToes  -2.21735e-009 9.83027e-011 -4.04511e-011
